{"asset":{"version":"2.0","generator":"babylon.js glTF exporter for 3ds max 2018 v1.4.0"},"scene":0,"scenes":[{"nodes":[0,1],"extensions":{}}],"nodes":[{"mesh":0,"translation":[0.0,0.0,0.0],"rotation":[0.0,4.371139E-08,1.0,0.0],"scale":[0.399504632,-0.399504632,0.399504632],"name":"Bat_mobile003"},{"translation":[0.0,0.0,0.0],"rotation":[0.0,0.0,0.0,1.0],"scale":[1.0,1.0,1.0],"name":"Default light"}],"meshes":[{"primitives":[{"attributes":{"POSITION":1,"NORMAL":2,"TEXCOORD_0":3},"indices":0,"mode":4,"material":0}],"name":"Bat_mobile003"}],"accessors":[{"bufferView":0,"componentType":5123,"count":1296,"type":"SCALAR","name":"accessorIndices"},{"bufferView":1,"componentType":5126,"count":1296,"max":[2.07121372,1.8326211,3.012213],"min":[-2.02607918,-0.7809908,-4.48945141],"type":"VEC3","name":"accessorPositions"},{"bufferView":1,"byteOffset":15552,"componentType":5126,"count":1296,"type":"VEC3","name":"accessorNormals"},{"bufferView":2,"componentType":5126,"count":1296,"type":"VEC2","name":"accessorUVs"}],"bufferViews":[{"buffer":0,"byteLength":2592,"name":"bufferViewScalar"},{"buffer":0,"byteOffset":2592,"byteLength":31104,"byteStride":12,"name":"bufferViewFloatVec3"},{"buffer":0,"byteOffset":33696,"byteLength":10368,"byteStride":8,"name":"bufferViewFloatVec2"}],"buffers":[{"uri":"batmob.bin","byteLength":44064}],"materials":[{"pbrMetallicRoughness":{"baseColorFactor":[0.7553957,0.745105147,0.738864362,1.0],"baseColorTexture":{"index":0,"texCoord":0},"metallicFactor":0.0,"roughnessFactor":1.0},"emissiveFactor":[0.0,0.0,0.0],"alphaMode":"OPAQUE","name":"color"}],"textures":[{"sampler":0,"source":0,"name":"atlascolor.jpg"}],"images":[{"uri":"atlascolor.jpg"}],"samplers":[{"magFilter":9729,"minFilter":9987,"wrapS":10497,"wrapT":10497}]}