{"asset":{"version":"2.0","generator":"babylon.js glTF exporter for 3ds max 2018 v1.4.0"},"scene":0,"scenes":[{"nodes":[0,8],"extensions":{}}],"nodes":[{"children":[1,2,3,4,5,6,7],"translation":[0.0,0.0,0.0],"rotation":[-1.0,-1.91068547E-15,-4.371139E-08,4.371139E-08],"scale":[0.5,-0.5,0.5],"name":"crab"},{"mesh":0,"translation":[0.0,0.703906238,-0.7137549],"rotation":[0.0,0.0,0.0,1.0],"scale":[1.0,1.0,1.0],"name":"crab_eyes2"},{"mesh":1,"translation":[3.87573238E-07,0.355625957,-0.6984163],"rotation":[0.0,0.0,0.0,1.0],"scale":[1.0,1.0,1.0],"name":"crab_eyes"},{"mesh":2,"translation":[1.93786627E-06,-0.06955506,-0.7623721],"rotation":[0.0,0.0,0.0,1.0],"scale":[1.0,1.0,1.0],"name":"crab_eyes1"},{"mesh":3,"translation":[3.87573238E-07,-0.969078064,-0.0884039],"rotation":[0.0,0.0,0.0,1.0],"scale":[1.0,1.0,1.0],"name":"crab_body"},{"mesh":4,"translation":[3.87573238E-07,-0.177379474,-1.20296836],"rotation":[0.0,0.0,0.0,1.0],"scale":[1.0,1.0,1.0],"name":"crab_claw2"},{"mesh":5,"translation":[0.004874121,-1.543617,-0.012154297],"rotation":[0.0,0.0,0.0,1.0],"scale":[1.0,1.0,1.0],"name":"crab_legs"},{"mesh":6,"translation":[3.87573238E-07,1.08285117,-1.38558674],"rotation":[0.0,0.0,0.0,1.0],"scale":[1.0,1.0,1.0],"name":"crab_claw"},{"translation":[0.0,0.0,0.0],"rotation":[0.0,0.0,0.0,1.0],"scale":[1.0,1.0,1.0],"name":"Default light"}],"meshes":[{"primitives":[{"attributes":{"POSITION":1,"NORMAL":2,"TEXCOORD_0":3},"indices":0,"mode":4,"material":0}],"name":"crab_eyes2"},{"primitives":[{"attributes":{"POSITION":5,"NORMAL":6,"TEXCOORD_0":7},"indices":4,"mode":4,"material":0}],"name":"crab_eyes"},{"primitives":[{"attributes":{"POSITION":9,"NORMAL":10,"TEXCOORD_0":11},"indices":8,"mode":4,"material":0}],"name":"crab_eyes1"},{"primitives":[{"attributes":{"POSITION":13,"NORMAL":14,"TEXCOORD_0":15},"indices":12,"mode":4,"material":0}],"name":"crab_body"},{"primitives":[{"attributes":{"POSITION":17,"NORMAL":18,"TEXCOORD_0":19},"indices":16,"mode":4,"material":0}],"name":"crab_claw2"},{"primitives":[{"attributes":{"POSITION":21,"NORMAL":22,"TEXCOORD_0":23},"indices":20,"mode":4,"material":0}],"name":"crab_legs"},{"primitives":[{"attributes":{"POSITION":25,"NORMAL":26,"TEXCOORD_0":27},"indices":24,"mode":4,"material":0}],"name":"crab_claw"}],"accessors":[{"bufferView":0,"componentType":5123,"count":132,"type":"SCALAR","name":"accessorIndices"},{"bufferView":1,"componentType":5126,"count":132,"max":[0.8270679,0.47798273,0.200336456],"min":[-0.827067733,-0.47798273,-0.200335935],"type":"VEC3","name":"accessorPositions"},{"bufferView":1,"byteOffset":1584,"componentType":5126,"count":132,"type":"VEC3","name":"accessorNormals"},{"bufferView":2,"componentType":5126,"count":132,"type":"VEC2","name":"accessorUVs"},{"bufferView":0,"byteOffset":264,"componentType":5123,"count":72,"type":"SCALAR","name":"accessorIndices"},{"bufferView":1,"byteOffset":3168,"componentType":5126,"count":72,"max":[0.661911368,0.419820845,0.243085936],"min":[-0.661911547,-0.419820964,-0.2430871],"type":"VEC3","name":"accessorPositions"},{"bufferView":1,"byteOffset":4032,"componentType":5126,"count":72,"type":"VEC3","name":"accessorNormals"},{"bufferView":2,"byteOffset":1056,"componentType":5126,"count":72,"type":"VEC2","name":"accessorUVs"},{"bufferView":0,"byteOffset":408,"componentType":5123,"count":48,"type":"SCALAR","name":"accessorIndices"},{"bufferView":1,"byteOffset":4896,"componentType":5126,"count":48,"max":[0.567721665,0.426723957,0.100698456],"min":[-0.5677219,-0.426724136,-0.10069821],"type":"VEC3","name":"accessorPositions"},{"bufferView":1,"byteOffset":5472,"componentType":5126,"count":48,"type":"VEC3","name":"accessorNormals"},{"bufferView":2,"byteOffset":1632,"componentType":5126,"count":48,"type":"VEC2","name":"accessorUVs"},{"bufferView":0,"byteOffset":504,"componentType":5123,"count":108,"type":"SCALAR","name":"accessorIndices"},{"bufferView":1,"byteOffset":6048,"componentType":5126,"count":108,"max":[1.16087329,0.759717643,1.34046066],"min":[-1.16087317,-0.7597176,-1.34046113],"type":"VEC3","name":"accessorPositions"},{"bufferView":1,"byteOffset":7344,"componentType":5126,"count":108,"type":"VEC3","name":"accessorNormals"},{"bufferView":2,"byteOffset":2016,"componentType":5126,"count":108,"type":"VEC2","name":"accessorUVs"},{"bufferView":0,"byteOffset":720,"componentType":5123,"count":120,"type":"SCALAR","name":"accessorIndices"},{"bufferView":1,"byteOffset":8640,"componentType":5126,"count":120,"max":[2.13665318,0.7280884,0.438226938],"min":[-2.13665318,-0.7280883,-0.4382275],"type":"VEC3","name":"accessorPositions"},{"bufferView":1,"byteOffset":10080,"componentType":5126,"count":120,"type":"VEC3","name":"accessorNormals"},{"bufferView":2,"byteOffset":2880,"componentType":5126,"count":120,"type":"VEC2","name":"accessorUVs"},{"bufferView":0,"byteOffset":960,"componentType":5123,"count":396,"type":"SCALAR","name":"accessorIndices"},{"bufferView":1,"byteOffset":11520,"componentType":5126,"count":396,"max":[1.87080693,0.718623,1.95287514],"min":[-1.87080693,-0.718623,-1.13192916],"type":"VEC3","name":"accessorPositions"},{"bufferView":1,"byteOffset":16272,"componentType":5126,"count":396,"type":"VEC3","name":"accessorNormals"},{"bufferView":2,"byteOffset":3840,"componentType":5126,"count":396,"type":"VEC2","name":"accessorUVs"},{"bufferView":0,"byteOffset":1752,"componentType":5123,"count":336,"type":"SCALAR","name":"accessorIndices"},{"bufferView":1,"byteOffset":21024,"componentType":5126,"count":336,"max":[3.05158162,1.179389,0.555131137],"min":[-3.05158162,-1.179389,-0.555131],"type":"VEC3","name":"accessorPositions"},{"bufferView":1,"byteOffset":25056,"componentType":5126,"count":336,"type":"VEC3","name":"accessorNormals"},{"bufferView":2,"byteOffset":7008,"componentType":5126,"count":336,"type":"VEC2","name":"accessorUVs"}],"bufferViews":[{"buffer":0,"byteLength":2424,"name":"bufferViewScalar"},{"buffer":0,"byteOffset":2424,"byteLength":29088,"byteStride":12,"name":"bufferViewFloatVec3"},{"buffer":0,"byteOffset":31512,"byteLength":9696,"byteStride":8,"name":"bufferViewFloatVec2"}],"buffers":[{"uri":"crab.bin","byteLength":41208}],"materials":[{"pbrMetallicRoughness":{"baseColorFactor":[0.7553957,0.745105147,0.738864362,1.0],"baseColorTexture":{"index":0,"texCoord":0},"metallicFactor":0.0,"roughnessFactor":1.0},"emissiveFactor":[0.0,0.0,0.0],"alphaMode":"OPAQUE","name":"color"}],"textures":[{"sampler":0,"source":0,"name":"atlascolor.jpg"}],"images":[{"uri":"atlascolor.jpg"}],"samplers":[{"magFilter":9729,"minFilter":9987,"wrapS":10497,"wrapT":10497}]}