{"asset":{"version":"2.0","generator":"babylon.js glTF exporter for 3ds max 2018 v1.4.0"},"scene":0,"scenes":[{"nodes":[0,16],"extensions":{}}],"nodes":[{"children":[1,2,3,4,5,6,7,8,9,10,11,12,13,14,15],"translation":[0.0,0.0,0.0],"rotation":[3.190679E-08,-0.9063078,-0.42261824,-6.842434E-08],"scale":[1.0,0.99999994,0.99999994],"name":"gauntlet"},{"mesh":0,"translation":[-0.178908452,-1.29775524,0.07198238],"rotation":[0.0,0.0,0.0,1.0],"scale":[1.0,0.99999994,0.99999994],"name":"Cylinder013"},{"mesh":1,"translation":[-0.178908467,-1.347459,0.07198238],"rotation":[0.0,0.0,0.0,1.0],"scale":[1.0,0.99999994,0.99999994],"name":"Object163"},{"mesh":2,"translation":[0.5198954,0.139780417,0.0390278436],"rotation":[0.0,0.0,0.0,1.0],"scale":[1.0,0.99999994,0.99999994],"name":"Cylinder014"},{"mesh":3,"translation":[0.179454178,0.6987425,0.02191494],"rotation":[0.0,0.0,0.0,1.0],"scale":[1.0,0.99999994,0.99999994],"name":"Box086"},{"mesh":4,"translation":[-0.0698298439,0.6987425,0.02191494],"rotation":[0.0,0.0,0.0,1.0],"scale":[1.0,0.99999994,0.99999994],"name":"Box087"},{"mesh":5,"translation":[-0.318664253,0.6987425,0.02191494],"rotation":[0.0,0.0,0.0,1.0],"scale":[1.0,0.99999994,0.99999994],"name":"Box088"},{"mesh":6,"translation":[-0.563201249,0.6987425,0.0219149645],"rotation":[0.0,0.0,0.0,1.0],"scale":[1.0,0.99999994,0.99999994],"name":"Box089"},{"mesh":7,"translation":[-0.068651624,0.0118501913,0.08982164],"rotation":[4.470349E-08,4.371139E-08,4.371139E-08,1.0],"scale":[1.0,0.9999999,0.9999999],"name":"Box090"},{"mesh":8,"translation":[-0.180957943,0.238581285,0.360267133],"rotation":[0.0,0.0,0.0,1.0],"scale":[1.0,0.99999994,0.99999994],"name":"Cylinder015"},{"mesh":9,"translation":[-0.180957943,0.238581285,0.360267133],"rotation":[0.0,0.0,0.0,1.0],"scale":[1.0,0.99999994,0.99999994],"name":"Object164"},{"mesh":10,"translation":[-0.545509338,0.625881255,0.1865475],"rotation":[0.0,0.0,0.0,1.0],"scale":[1.0,0.99999994,0.99999994],"name":"Object165"},{"mesh":11,"translation":[-0.2993414,0.681332052,0.235290259],"rotation":[0.0,0.0,0.0,1.0],"scale":[1.0,0.99999994,0.99999994],"name":"Object166"},{"mesh":12,"translation":[-0.0544261336,0.6753261,0.2258676],"rotation":[0.0,0.0,0.0,1.0],"scale":[1.0,0.99999994,0.99999994],"name":"Object167"},{"mesh":13,"translation":[0.189310923,0.6303762,0.179106116],"rotation":[0.0,0.0,0.0,1.0],"scale":[1.0,0.99999994,0.99999994],"name":"Object168"},{"mesh":14,"translation":[0.51159513,0.139780417,0.0377178527],"rotation":[0.0,0.0,0.0,1.0],"scale":[1.0,0.99999994,0.99999994],"name":"Object169"},{"translation":[0.0,0.0,0.0],"rotation":[0.0,0.0,0.0,1.0],"scale":[1.0,1.0,1.0],"name":"Default light"}],"meshes":[{"primitives":[{"attributes":{"POSITION":1,"NORMAL":2,"TEXCOORD_0":3},"indices":0,"mode":4,"material":0}],"name":"Cylinder013"},{"primitives":[{"attributes":{"POSITION":5,"NORMAL":6,"TEXCOORD_0":7},"indices":4,"mode":4,"material":0}],"name":"Object163"},{"primitives":[{"attributes":{"POSITION":9,"NORMAL":10,"TEXCOORD_0":11},"indices":8,"mode":4,"material":0}],"name":"Cylinder014"},{"primitives":[{"attributes":{"POSITION":13,"NORMAL":14,"TEXCOORD_0":15},"indices":12,"mode":4,"material":0}],"name":"Box086"},{"primitives":[{"attributes":{"POSITION":17,"NORMAL":18,"TEXCOORD_0":19},"indices":16,"mode":4,"material":0}],"name":"Box087"},{"primitives":[{"attributes":{"POSITION":21,"NORMAL":22,"TEXCOORD_0":23},"indices":20,"mode":4,"material":0}],"name":"Box088"},{"primitives":[{"attributes":{"POSITION":25,"NORMAL":26,"TEXCOORD_0":27},"indices":24,"mode":4,"material":0}],"name":"Box089"},{"primitives":[{"attributes":{"POSITION":29,"NORMAL":30,"TEXCOORD_0":31},"indices":28,"mode":4,"material":0}],"name":"Box090"},{"primitives":[{"attributes":{"POSITION":33,"NORMAL":34,"TEXCOORD_0":35},"indices":32,"mode":4,"material":0}],"name":"Cylinder015"},{"primitives":[{"attributes":{"POSITION":37,"NORMAL":38,"TEXCOORD_0":39},"indices":36,"mode":4,"material":0}],"name":"Object164"},{"primitives":[{"attributes":{"POSITION":41,"NORMAL":42,"TEXCOORD_0":43},"indices":40,"mode":4,"material":0}],"name":"Object165"},{"primitives":[{"attributes":{"POSITION":45,"NORMAL":46,"TEXCOORD_0":47},"indices":44,"mode":4,"material":0}],"name":"Object166"},{"primitives":[{"attributes":{"POSITION":49,"NORMAL":50,"TEXCOORD_0":51},"indices":48,"mode":4,"material":0}],"name":"Object167"},{"primitives":[{"attributes":{"POSITION":53,"NORMAL":54,"TEXCOORD_0":55},"indices":52,"mode":4,"material":0}],"name":"Object168"},{"primitives":[{"attributes":{"POSITION":57,"NORMAL":58,"TEXCOORD_0":59},"indices":56,"mode":4,"material":0}],"name":"Object169"}],"accessors":[{"bufferView":0,"componentType":5123,"count":222,"type":"SCALAR","name":"accessorIndices"},{"bufferView":1,"componentType":5126,"count":222,"max":[0.831117868,1.17275047,0.70495373],"min":[-0.543342054,-0.1169041,-0.704953551],"type":"VEC3","name":"accessorPositions"},{"bufferView":1,"byteOffset":2664,"componentType":5126,"count":222,"type":"VEC3","name":"accessorNormals"},{"bufferView":2,"componentType":5126,"count":222,"type":"VEC2","name":"accessorUVs"},{"bufferView":0,"byteOffset":444,"componentType":5123,"count":144,"type":"SCALAR","name":"accessorIndices"},{"bufferView":1,"byteOffset":5328,"componentType":5126,"count":144,"max":[0.797916234,2.297926,0.4176097],"min":[-0.510142,1.20974231,-0.4202667],"type":"VEC3","name":"accessorPositions"},{"bufferView":1,"byteOffset":7056,"componentType":5126,"count":144,"type":"VEC3","name":"accessorNormals"},{"bufferView":2,"byteOffset":1776,"componentType":5126,"count":144,"type":"VEC2","name":"accessorUVs"},{"bufferView":0,"byteOffset":732,"componentType":5123,"count":60,"type":"SCALAR","name":"accessorIndices"},{"bufferView":1,"byteOffset":8784,"componentType":5126,"count":60,"max":[-1.01893508,0.268381238,0.3007517],"min":[-1.59996116,-0.239226088,-0.2228314],"type":"VEC3","name":"accessorPositions"},{"bufferView":1,"byteOffset":9504,"componentType":5126,"count":60,"type":"VEC3","name":"accessorNormals"},{"bufferView":2,"byteOffset":2928,"componentType":5126,"count":60,"type":"VEC2","name":"accessorUVs"},{"bufferView":0,"byteOffset":852,"componentType":5123,"count":78,"type":"SCALAR","name":"accessorIndices"},{"bufferView":1,"byteOffset":10224,"componentType":5126,"count":78,"max":[-0.4798622,0.573466063,0.1667093],"min":[-0.7715832,-0.07121571,-0.798851252],"type":"VEC3","name":"accessorPositions"},{"bufferView":1,"byteOffset":11160,"componentType":5126,"count":78,"type":"VEC3","name":"accessorNormals"},{"bufferView":2,"byteOffset":3408,"componentType":5126,"count":78,"type":"VEC2","name":"accessorUVs"},{"bufferView":0,"byteOffset":1008,"componentType":5123,"count":78,"type":"SCALAR","name":"accessorIndices"},{"bufferView":1,"byteOffset":12096,"componentType":5126,"count":78,"max":[0.03324398,0.715917051,0.207961947],"min":[-0.228107825,-0.0565231964,-0.711918533],"type":"VEC3","name":"accessorPositions"},{"bufferView":1,"byteOffset":13032,"componentType":5126,"count":78,"type":"VEC3","name":"accessorNormals"},{"bufferView":2,"byteOffset":4032,"componentType":5126,"count":78,"type":"VEC2","name":"accessorUVs"},{"bufferView":0,"byteOffset":1164,"componentType":5123,"count":78,"type":"SCALAR","name":"accessorIndices"},{"bufferView":1,"byteOffset":13968,"componentType":5126,"count":78,"max":[0.581362665,0.6445572,0.207961917],"min":[0.319392323,-0.0565231,-0.711918533],"type":"VEC3","name":"accessorPositions"},{"bufferView":1,"byteOffset":14904,"componentType":5126,"count":78,"type":"VEC3","name":"accessorNormals"},{"bufferView":2,"byteOffset":4656,"componentType":5126,"count":78,"type":"VEC2","name":"accessorUVs"},{"bufferView":0,"byteOffset":1320,"componentType":5123,"count":78,"type":"SCALAR","name":"accessorIndices"},{"bufferView":1,"byteOffset":15840,"componentType":5126,"count":78,"max":[1.10793722,0.5361042,0.16670908],"min":[0.822472,-0.07121552,-0.678440869],"type":"VEC3","name":"accessorPositions"},{"bufferView":1,"byteOffset":16776,"componentType":5126,"count":78,"type":"VEC3","name":"accessorNormals"},{"bufferView":2,"byteOffset":5280,"componentType":5126,"count":78,"type":"VEC2","name":"accessorUVs"},{"bufferView":0,"byteOffset":1476,"componentType":5123,"count":78,"type":"SCALAR","name":"accessorIndices"},{"bufferView":1,"byteOffset":17712,"componentType":5126,"count":78,"max":[-0.0362963229,0.572843254,0.278463632],"min":[-0.969201863,-0.123942435,-0.7195918],"type":"VEC3","name":"accessorPositions"},{"bufferView":1,"byteOffset":18648,"componentType":5126,"count":78,"type":"VEC3","name":"accessorNormals"},{"bufferView":2,"byteOffset":5904,"componentType":5126,"count":78,"type":"VEC2","name":"accessorUVs"},{"bufferView":0,"byteOffset":1632,"componentType":5123,"count":48,"type":"SCALAR","name":"accessorIndices"},{"bufferView":1,"byteOffset":19584,"componentType":5126,"count":48,"max":[0.44305405,0.337703943,0.126670748],"min":[-0.163931,-0.396547943,-0.08173893],"type":"VEC3","name":"accessorPositions"},{"bufferView":1,"byteOffset":20160,"componentType":5126,"count":48,"type":"VEC3","name":"accessorNormals"},{"bufferView":2,"byteOffset":6528,"componentType":5126,"count":48,"type":"VEC2","name":"accessorUVs"},{"bufferView":0,"byteOffset":1728,"componentType":5123,"count":48,"type":"SCALAR","name":"accessorIndices"},{"bufferView":1,"byteOffset":20736,"componentType":5126,"count":48,"max":[0.34847185,0.2597491,0.201291442],"min":[-0.05402829,-0.272853673,0.09088917],"type":"VEC3","name":"accessorPositions"},{"bufferView":1,"byteOffset":21312,"componentType":5126,"count":48,"type":"VEC3","name":"accessorNormals"},{"bufferView":2,"byteOffset":6912,"componentType":5126,"count":48,"type":"VEC2","name":"accessorUVs"},{"bufferView":0,"byteOffset":1824,"componentType":5123,"count":48,"type":"SCALAR","name":"accessorIndices"},{"bufferView":1,"byteOffset":21888,"componentType":5126,"count":48,"max":[1.00357223,0.156139255,0.134036481],"min":[0.76997906,-0.1307178,0.009185001],"type":"VEC3","name":"accessorPositions"},{"bufferView":1,"byteOffset":22464,"componentType":5126,"count":48,"type":"VEC3","name":"accessorNormals"},{"bufferView":2,"byteOffset":7296,"componentType":5126,"count":48,"type":"VEC2","name":"accessorUVs"},{"bufferView":0,"byteOffset":1920,"componentType":5123,"count":48,"type":"SCALAR","name":"accessorIndices"},{"bufferView":1,"byteOffset":23040,"componentType":5126,"count":48,"max":[0.5037735,0.1560037,0.135936633],"min":[0.273221433,-0.130879551,0.00922371],"type":"VEC3","name":"accessorPositions"},{"bufferView":1,"byteOffset":23616,"componentType":5126,"count":48,"type":"VEC3","name":"accessorNormals"},{"bufferView":2,"byteOffset":7680,"componentType":5126,"count":48,"type":"VEC2","name":"accessorUVs"},{"bufferView":0,"byteOffset":2016,"componentType":5123,"count":48,"type":"SCALAR","name":"accessorIndices"},{"bufferView":1,"byteOffset":24192,"componentType":5126,"count":48,"max":[-0.00347899669,0.155417547,0.133852974],"min":[-0.230482727,-0.132360861,0.009668669],"type":"VEC3","name":"accessorPositions"},{"bufferView":1,"byteOffset":24768,"componentType":5126,"count":48,"type":"VEC3","name":"accessorNormals"},{"bufferView":2,"byteOffset":8064,"componentType":5126,"count":48,"type":"VEC2","name":"accessorUVs"},{"bufferView":0,"byteOffset":2112,"componentType":5123,"count":48,"type":"SCALAR","name":"accessorIndices"},{"bufferView":1,"byteOffset":25344,"componentType":5126,"count":48,"max":[-0.490953118,0.155417442,0.133853063],"min":[-0.7179568,-0.1323609,0.009668741],"type":"VEC3","name":"accessorPositions"},{"bufferView":1,"byteOffset":25920,"componentType":5126,"count":48,"type":"VEC3","name":"accessorNormals"},{"bufferView":2,"byteOffset":8448,"componentType":5126,"count":48,"type":"VEC2","name":"accessorUVs"},{"bufferView":0,"byteOffset":2208,"componentType":5123,"count":48,"type":"SCALAR","name":"accessorIndices"},{"bufferView":1,"byteOffset":26496,"componentType":5126,"count":48,"max":[-1.14684522,0.144311726,0.19346936],"min":[-1.48301828,-0.192824632,-0.113884859],"type":"VEC3","name":"accessorPositions"},{"bufferView":1,"byteOffset":27072,"componentType":5126,"count":48,"type":"VEC3","name":"accessorNormals"},{"bufferView":2,"byteOffset":8832,"componentType":5126,"count":48,"type":"VEC2","name":"accessorUVs"}],"bufferViews":[{"buffer":0,"byteLength":2304,"name":"bufferViewScalar"},{"buffer":0,"byteOffset":2304,"byteLength":27648,"byteStride":12,"name":"bufferViewFloatVec3"},{"buffer":0,"byteOffset":29952,"byteLength":9216,"byteStride":8,"name":"bufferViewFloatVec2"}],"buffers":[{"uri":"gauntlet.bin","byteLength":39168}],"materials":[{"pbrMetallicRoughness":{"baseColorFactor":[0.7553957,0.745105147,0.738864362,1.0],"baseColorTexture":{"index":0,"texCoord":0},"metallicFactor":0.0,"roughnessFactor":1.0},"emissiveFactor":[0.0,0.0,0.0],"alphaMode":"OPAQUE","name":"color"}],"textures":[{"sampler":0,"source":0,"name":"atlascolor.jpg"}],"images":[{"uri":"atlascolor.jpg"}],"samplers":[{"magFilter":9729,"minFilter":9987,"wrapS":10497,"wrapT":10497}]}